<svg width="304" height="217" viewBox="0 0 304 217" fill="none" xmlns="http://www.w3.org/2000/svg">
<path d="M181.983 198.682C181.71 199.7 181.467 200.65 181.237 201.552C180.166 205.751 179.364 208.898 177 212.691V215.737L176.88 215.877C176.64 216.157 176.402 216.4 176.157 216.576C175.908 216.755 175.626 216.884 175.306 216.894C174.673 216.912 174.139 216.465 173.625 215.883L173.5 215.741V212.694C171.344 209.328 170.481 206.058 169.338 201.735C169.084 200.777 168.817 199.765 168.519 198.686L168.343 198.052H182.152L181.983 198.682ZM255.5 154.052C265.993 154.052 274.5 162.558 274.5 173.052C274.5 179.216 271.562 184.693 267.015 188.163L268.499 213.021L268.562 214.09L267.703 213.454L256.54 205.203C256.521 205.189 256.502 205.175 256.484 205.162C256.465 205.175 256.445 205.189 256.424 205.203C256.197 205.355 255.867 205.575 255.462 205.849C254.651 206.397 253.533 207.161 252.305 208.023C249.841 209.753 246.959 211.863 245.214 213.425L244.381 214.17V188.457C239.608 185.006 236.5 179.393 236.5 173.052C236.5 162.558 245.007 154.052 255.5 154.052ZM261 56.3535H249V14.0967C223.945 16.2454 205.462 19.2593 189.942 25.2236C174.379 31.2048 161.769 40.1642 148.5 54.251V179.404L162.183 168.165L162.321 168.052H163.5V194.267L163.344 194.414C160.425 197.184 156.374 199.592 152.883 201.3C151.134 202.155 149.514 202.841 148.233 203.312C147.594 203.547 147.033 203.731 146.58 203.855C146.146 203.975 145.759 204.056 145.492 204.052C144.513 204.036 143.318 204.041 142.041 204.046C141.375 204.049 140.687 204.052 140 204.052C139.685 204.052 139.23 203.97 138.701 203.841C138.16 203.708 137.501 203.515 136.762 203.269C135.282 202.776 133.461 202.066 131.576 201.194C127.886 199.488 123.859 197.118 121.706 194.482C76.3278 179.708 49.6349 176.617 0.544922 181.05L0 181.099V23.0518H14V167.043C56.2389 166.324 79.5923 168.908 118.202 180.014C106.33 172.586 95.6676 167.276 81.9365 163.737C67.6086 160.045 49.9159 158.271 23.9961 158.052L23.5 158.048V0.294922L24.04 0.337891C54.9254 2.80945 76.8429 6.43952 94.8711 13.0605C112.856 19.6658 126.944 29.2382 142.197 43.5518H142.29C155.473 29.9164 168.511 20.672 186.481 14.0273C204.5 7.3647 227.458 3.32159 260.451 0.0537109L261 0V56.3535ZM269.05 61.0547C274.139 61.5668 277.731 63.0425 280.438 66.5312C283.109 69.9754 284.871 75.3279 286.49 83.4541C286.71 84.5547 286.772 85.8834 286.843 87.3535C286.883 88.1859 286.925 89.0722 286.998 90.0127C287.504 96.524 286.805 105.613 286.061 115.298C285.523 122.295 284.961 129.619 284.801 136.563C284.577 146.28 284.802 155.525 285.599 161.485L285.602 161.502L285.603 161.519C285.798 164.482 286.266 166.698 286.682 168.166C286.889 168.899 287.084 169.446 287.225 169.807C287.262 169.901 287.297 169.983 287.326 170.052H292.038L292.076 170.058C298.856 171.101 304 177.336 304 185.552C304 193.814 298.319 199.488 292.121 201.037L292.062 201.052H271.5V194.552H286C290.431 194.552 293.154 193.504 294.774 191.912C296.392 190.323 297 188.103 297 185.552C297 182.953 296.622 180.886 295.149 179.441C293.668 177.989 290.963 177.052 286 177.052H277V170.052H280.326C280.217 169.673 280.066 169.13 279.89 168.423C279.511 166.91 279.009 164.647 278.507 161.634L278.504 161.613L278.502 161.594C278.002 155.589 277.327 146.263 277.5 136.543C277.641 128.659 278.317 120.321 278.941 112.621C279.666 103.685 280.317 95.6347 280.001 90.0801C279.961 89.3781 279.928 88.715 279.897 88.0967C279.799 86.1044 279.724 84.6158 279.512 83.6602C278.271 78.0864 277.283 74.2365 275.767 71.7393C275.019 70.5073 274.153 69.625 273.078 69.0312C272.135 68.5101 271.003 68.1958 269.601 68.0859L268.982 68.0518H190.398C190.972 69.0303 191.883 70.7261 192.776 72.7773C194.012 75.6134 195.242 79.1818 195.498 82.5137C195.511 82.6879 195.525 82.865 195.539 83.0449C196.043 89.5754 196.837 99.8484 195.718 110.604C194.574 121.597 194.148 126.413 193.698 136.574C193.248 146.764 193.56 159.527 194.043 170.53C194.051 170.708 194.055 170.83 194.056 170.906C194.056 170.938 194.056 170.984 194.052 171.025C194.051 171.037 194.049 171.06 194.043 171.087C194.042 171.091 194.032 171.138 194.003 171.199C194.049 172.036 194.146 173.63 194.33 176.52C194.665 181.78 195.125 185.671 196.377 188.505C197.605 191.284 199.604 193.065 203.137 194.071C204.098 194.345 204.993 194.342 205.851 194.074C208.589 193.218 210.148 192.196 211.134 190.984C212.12 189.772 212.578 188.316 213.005 186.469C213.193 184.843 213.176 184.02 213.005 182.625C212.573 180.057 210.672 178.052 208.5 178.052C207.388 178.052 206.489 178.496 205.856 178.956C205.541 179.185 205.298 179.414 205.135 179.585C205.053 179.67 204.992 179.74 204.952 179.787C204.932 179.811 204.918 179.829 204.909 179.84C204.905 179.845 204.902 179.85 204.9 179.852L204 181.052V172.795L204.209 172.645L207.709 170.145L207.84 170.052H234V177.052H217.976C218.437 177.735 218.785 178.382 219.029 179.093C219.365 180.071 219.494 181.136 219.499 182.533C219.601 184.16 219.565 185.026 219.501 186.544L219.5 186.573L219.499 186.585L219.498 186.598C219.318 188.549 219.022 190 218.527 191.338C218.123 192.43 217.591 193.431 216.903 194.552H240V201.052H203C198.774 201.052 194.84 198.355 192.012 193.99C189.178 189.618 187.409 183.518 187.506 176.545C187.413 174.61 187.323 172.612 187.24 170.572C186.784 159.301 186.535 146.748 187.001 136.529C187.28 130.402 187.676 126.028 188.11 121.238C188.398 118.06 188.702 114.699 189.001 110.517C189.546 102.885 189.206 95.5129 189.047 92.0762C189.018 91.4424 188.995 90.9364 188.984 90.5898C188.984 90.577 188.985 90.5643 188.984 90.5518H178.5C173.733 90.5518 170.243 88.7093 167.986 85.9131C165.74 83.13 164.747 79.4422 164.875 75.7842C165.131 68.4974 169.885 61.0518 178.5 61.0518H269.025L269.05 61.0547ZM175.5 95.8018C176.552 95.8018 177.635 95.9975 178.474 96.417C179.311 96.8358 180 97.5356 180 98.5518V105.553C180.521 105.58 180.95 105.7 181.283 105.983C181.712 106.349 181.872 106.898 181.989 107.447L182 107.499V197.052H168.5V115.02C168.205 115.021 167.951 115.068 167.694 115.161C167.351 115.286 166.986 115.496 166.5 115.819V143.552C166.5 144.051 166.176 144.379 165.845 144.556C165.518 144.73 165.119 144.802 164.75 144.802C164.381 144.802 163.982 144.73 163.655 144.556C163.324 144.379 163 144.051 163 143.552V113.293L163.211 113.144C164.916 111.938 165.976 111.233 168 110.668V107.368L168.119 107.229C168.639 106.616 169.091 106.159 169.603 105.813C170.024 105.529 170.47 105.332 171 105.172V98.5518C171 97.5356 171.689 96.8358 172.526 96.417C173.365 95.9975 174.448 95.8018 175.5 95.8018ZM255.5 160.052C248.32 160.052 242.5 165.872 242.5 173.052C242.5 180.231 248.32 186.052 255.5 186.052C262.68 186.052 268.5 180.231 268.5 173.052C268.5 165.872 262.68 160.052 255.5 160.052ZM255.5 161.052C262.127 161.052 267.5 166.424 267.5 173.052C267.5 179.679 262.127 185.052 255.5 185.052C248.873 185.052 243.5 179.679 243.5 173.052C243.5 166.424 248.873 161.052 255.5 161.052ZM35.5 146.558C53.7215 146.78 74.7206 149.033 90.1602 153.619L91.6504 154.075L91.6611 154.078C111.687 160.89 121.743 166.804 136.495 180.404L136 54.2676C123.143 42.0388 112.039 33.0906 97.1338 26.5859C82.2572 20.0939 63.5588 16.0204 35.5 13.5967V146.558ZM265.5 145.552H206.5V140.052H265.5V145.552ZM266.5 132.552H207.5V127.052H266.5V132.552ZM267 119.552H208V114.052H267V119.552ZM267 106.552H208V101.052H267V106.552ZM267 94.0518H208V88.5518H267V94.0518ZM178.5 68.0518C174.691 68.0518 171.5 71.5728 171.5 76.0518C171.5 80.5307 174.691 84.0518 178.5 84.0518C182.309 84.0518 185.5 80.5307 185.5 76.0518C185.5 71.5728 182.309 68.0518 178.5 68.0518ZM284 61.457L283.234 60.9746C279.173 58.4217 276.592 57.3222 270.915 56.3457L270.5 56.2744V23.0518H284V61.457Z" fill="url(#paint0_linear_5_42)"/>
<defs>
<linearGradient id="paint0_linear_5_42" x1="350.5" y1="143.052" x2="8.65785e-07" y2="229.552" gradientUnits="userSpaceOnUse">
<stop stop-color="#00407D"/>
<stop offset="1" stop-color="#011537"/>
</linearGradient>
</defs>
</svg>
